<mxfile host="app.diagrams.net" modified="2022-10-31T14:42:01.625Z" agent="5.0 (Windows NT 10.0; Win64; x64) AppleWebKit/537.36 (KHTML, like Gecko) Chrome/105.0.0.0 Safari/537.36 OPR/91.0.4516.95" etag="7rd6wu4myQBCR46XD0yr" version="20.5.1" type="github">
  <diagram id="P8xIjdo2YTh8dVMSnrCX" name="Seite-1">
    <mxGraphModel dx="952" dy="527" grid="1" gridSize="10" guides="1" tooltips="1" connect="1" arrows="1" fold="1" page="1" pageScale="1" pageWidth="827" pageHeight="1169" math="0" shadow="0">
      <root>
        <mxCell id="0" />
        <mxCell id="1" parent="0" />
        <mxCell id="o7TZNKNYHE-RX4gm9EyW-12" style="edgeStyle=orthogonalEdgeStyle;rounded=0;orthogonalLoop=1;jettySize=auto;html=1;exitX=1;exitY=0.3333333333333333;exitDx=0;exitDy=0;exitPerimeter=0;entryX=0.25;entryY=1;entryDx=0;entryDy=0;" edge="1" parent="1" source="o7TZNKNYHE-RX4gm9EyW-2" target="o7TZNKNYHE-RX4gm9EyW-11">
          <mxGeometry relative="1" as="geometry" />
        </mxCell>
        <mxCell id="o7TZNKNYHE-RX4gm9EyW-2" value="Vater 31&lt;br&gt;" style="shape=umlActor;verticalLabelPosition=bottom;verticalAlign=top;html=1;outlineConnect=0;" vertex="1" parent="1">
          <mxGeometry x="40" y="150" width="30" height="60" as="geometry" />
        </mxCell>
        <mxCell id="o7TZNKNYHE-RX4gm9EyW-13" style="edgeStyle=orthogonalEdgeStyle;rounded=0;orthogonalLoop=1;jettySize=auto;html=1;exitX=0.5;exitY=0;exitDx=0;exitDy=0;exitPerimeter=0;" edge="1" parent="1" source="o7TZNKNYHE-RX4gm9EyW-3" target="o7TZNKNYHE-RX4gm9EyW-11">
          <mxGeometry relative="1" as="geometry" />
        </mxCell>
        <mxCell id="o7TZNKNYHE-RX4gm9EyW-3" value="Tochter 9&lt;br&gt;" style="shape=umlActor;verticalLabelPosition=bottom;verticalAlign=top;html=1;outlineConnect=0;" vertex="1" parent="1">
          <mxGeometry x="110" y="180" width="20" height="30" as="geometry" />
        </mxCell>
        <mxCell id="o7TZNKNYHE-RX4gm9EyW-14" style="edgeStyle=orthogonalEdgeStyle;rounded=0;orthogonalLoop=1;jettySize=auto;html=1;exitX=0.5;exitY=0;exitDx=0;exitDy=0;exitPerimeter=0;entryX=0.642;entryY=0.967;entryDx=0;entryDy=0;entryPerimeter=0;" edge="1" parent="1" source="o7TZNKNYHE-RX4gm9EyW-4" target="o7TZNKNYHE-RX4gm9EyW-11">
          <mxGeometry relative="1" as="geometry" />
        </mxCell>
        <mxCell id="o7TZNKNYHE-RX4gm9EyW-4" value="Tochter9" style="shape=umlActor;verticalLabelPosition=bottom;verticalAlign=top;html=1;outlineConnect=0;" vertex="1" parent="1">
          <mxGeometry x="160" y="180" width="20" height="30" as="geometry" />
        </mxCell>
        <mxCell id="o7TZNKNYHE-RX4gm9EyW-11" value="Familie" style="shape=parallelogram;perimeter=parallelogramPerimeter;whiteSpace=wrap;html=1;fixedSize=1;" vertex="1" parent="1">
          <mxGeometry x="60" y="50" width="120" height="30" as="geometry" />
        </mxCell>
        <mxCell id="o7TZNKNYHE-RX4gm9EyW-31" style="edgeStyle=orthogonalEdgeStyle;rounded=0;orthogonalLoop=1;jettySize=auto;html=1;exitX=0.75;exitY=0;exitDx=0;exitDy=0;" edge="1" parent="1" source="o7TZNKNYHE-RX4gm9EyW-20" target="o7TZNKNYHE-RX4gm9EyW-22">
          <mxGeometry relative="1" as="geometry" />
        </mxCell>
        <mxCell id="o7TZNKNYHE-RX4gm9EyW-20" value="Fischer&lt;br&gt;" style="whiteSpace=wrap;html=1;aspect=fixed;" vertex="1" parent="1">
          <mxGeometry x="140" y="400" width="80" height="80" as="geometry" />
        </mxCell>
        <mxCell id="o7TZNKNYHE-RX4gm9EyW-22" value="1 Erwachsener oder 2 Kinder" style="shape=mxgraph.signs.sports.sail_boat;html=1;pointerEvents=1;fillColor=#000000;strokeColor=none;verticalLabelPosition=bottom;verticalAlign=top;align=center;" vertex="1" parent="1">
          <mxGeometry x="250" y="191" width="92" height="99" as="geometry" />
        </mxCell>
        <mxCell id="o7TZNKNYHE-RX4gm9EyW-24" value="Fluss" style="shape=image;html=1;verticalAlign=top;verticalLabelPosition=bottom;labelBackgroundColor=#ffffff;imageAspect=0;aspect=fixed;image=https://cdn3.iconfinder.com/data/icons/travelling-icon-set-ii-part/800/waves-128.png" vertex="1" parent="1">
          <mxGeometry x="414" y="300" width="60" height="60" as="geometry" />
        </mxCell>
        <mxCell id="o7TZNKNYHE-RX4gm9EyW-25" value="Ufer 1" style="whiteSpace=wrap;html=1;aspect=fixed;" vertex="1" parent="1">
          <mxGeometry x="80" y="280" width="80" height="80" as="geometry" />
        </mxCell>
        <mxCell id="o7TZNKNYHE-RX4gm9EyW-26" value="Ufer zwei" style="whiteSpace=wrap;html=1;aspect=fixed;" vertex="1" parent="1">
          <mxGeometry x="660" y="290" width="80" height="80" as="geometry" />
        </mxCell>
        <mxCell id="o7TZNKNYHE-RX4gm9EyW-32" value="" style="shape=flexArrow;endArrow=classic;startArrow=classic;html=1;rounded=0;" edge="1" parent="1">
          <mxGeometry width="100" height="100" relative="1" as="geometry">
            <mxPoint x="500" y="330" as="sourcePoint" />
            <mxPoint x="650" y="330" as="targetPoint" />
          </mxGeometry>
        </mxCell>
        <mxCell id="o7TZNKNYHE-RX4gm9EyW-33" value="" style="shape=flexArrow;endArrow=classic;startArrow=classic;html=1;rounded=0;" edge="1" parent="1">
          <mxGeometry width="100" height="100" relative="1" as="geometry">
            <mxPoint x="170" y="320" as="sourcePoint" />
            <mxPoint x="400" y="320" as="targetPoint" />
          </mxGeometry>
        </mxCell>
        <mxCell id="o7TZNKNYHE-RX4gm9EyW-35" value="Anz Fahrten" style="text;html=1;strokeColor=none;fillColor=none;align=center;verticalAlign=middle;whiteSpace=wrap;rounded=0;" vertex="1" parent="1">
          <mxGeometry x="414" y="270" width="60" height="30" as="geometry" />
        </mxCell>
        <mxCell id="o7TZNKNYHE-RX4gm9EyW-36" value="Anzahl Personen/Kinder" style="text;html=1;strokeColor=none;fillColor=none;align=center;verticalAlign=middle;whiteSpace=wrap;rounded=0;" vertex="1" parent="1">
          <mxGeometry x="90" y="360" width="60" height="30" as="geometry" />
        </mxCell>
        <mxCell id="o7TZNKNYHE-RX4gm9EyW-37" value="Anzahl Personen/Kinder" style="text;html=1;strokeColor=none;fillColor=none;align=center;verticalAlign=middle;whiteSpace=wrap;rounded=0;" vertex="1" parent="1">
          <mxGeometry x="670" y="370" width="60" height="30" as="geometry" />
        </mxCell>
      </root>
    </mxGraphModel>
  </diagram>
</mxfile>
